<svg width="17" height="18" viewBox="0 0 17 18" fill="none" xmlns="http://www.w3.org/2000/svg">
<path fill-rule="evenodd" clip-rule="evenodd" d="M5.46429 1.22409C5.46429 0.548043 4.92063 0 4.25 0C3.57937 0 3.03571 0.548043 3.03571 1.22409V2.44818H1.82143C0.815481 2.44818 0 3.27024 0 4.28431V6.12045H17V4.28431C17 3.27024 16.1845 2.44818 15.1786 2.44818H13.9644V1.22409C13.9644 0.548043 13.4208 0 12.7501 0C12.0795 0 11.5358 0.548043 11.5358 1.22409V2.44818H5.46429V1.22409ZM17 7.65056H0V15.3011C0 16.3152 0.815481 17.1373 1.82143 17.1373H15.1786C16.1845 17.1373 17 16.3152 17 15.3011V7.65056Z" fill="#497248"/>
</svg>
