<svg width="48" height="38" viewBox="0 0 48 38" fill="none" xmlns="http://www.w3.org/2000/svg">
<path fill-rule="evenodd" clip-rule="evenodd" d="M15.7714 0.828537C16.0952 0.396879 16.6033 0.142822 17.1429 0.142822H30.8571C31.3967 0.142822 31.9048 0.396879 32.2286 0.828537L36.8571 6.99997H42.8571C44.221 6.99997 45.5294 7.54182 46.4938 8.50627C47.4583 9.47073 48 10.7788 48 12.1428V32.7143C48 34.0781 47.4583 35.3865 46.4938 36.3509C45.5294 37.3154 44.221 37.8571 42.8571 37.8571H5.14286C3.77887 37.8571 2.47078 37.3154 1.50631 36.3509C0.541834 35.3865 0 34.0781 0 32.7143V12.1428C0 10.7789 0.541834 9.47073 1.50631 8.50627C2.47078 7.54182 3.77887 6.99997 5.14286 6.99997H11.1429L15.7714 0.828537ZM32.4388 21.4388C32.4388 26.0994 28.6606 29.8775 24 29.8775C19.3393 29.8775 15.5612 26.0994 15.5612 21.4388C15.5612 16.7781 19.3393 13 24 13C28.6606 13 32.4388 16.7781 32.4388 21.4388Z" fill="#E7A517"/>
</svg>
