<svg width="19" height="19" viewBox="0 0 19 19" fill="none" xmlns="http://www.w3.org/2000/svg">
<path fill-rule="evenodd" clip-rule="evenodd" d="M9.50575 0C8.42241 4.95366e-05 7.3814 0.420732 6.60219 1.17336C5.82297 1.926 5.36643 2.95178 5.32879 4.03447C4.29207 3.72875 3.17701 3.83917 2.22038 4.34228C1.26375 4.84539 0.54089 5.70157 0.205297 6.72901C-0.130295 7.75645 -0.0521938 8.87424 0.423018 9.84504C0.89823 10.8158 1.73312 11.5632 2.75042 11.9283C2.15291 12.8191 1.92584 13.9076 2.11736 14.963C2.30888 16.0184 2.90393 16.9577 3.77634 17.5818C4.65046 18.213 5.73417 18.4833 6.80237 18.3365C7.87056 18.1897 8.84115 17.637 9.51254 16.7933C9.93063 17.3193 10.469 17.7371 11.0823 18.0116C11.6956 18.2861 12.3659 18.4091 13.0367 18.3704C13.7075 18.3317 14.3592 18.1324 14.9368 17.7892C15.5145 17.446 16.0013 16.969 16.3561 16.3984C16.7733 15.7236 16.9873 14.9429 16.9724 14.1496C16.9575 13.3564 16.7143 12.5843 16.2719 11.9256C17.2819 11.5594 18.11 10.8148 18.581 9.84919C19.052 8.88359 19.1291 7.77267 18.796 6.75126L18.1501 6.9616L18.7947 6.7499C18.4579 5.72553 17.7371 4.87164 16.7837 4.36777C15.8304 3.86389 14.7188 3.74928 13.6827 4.04804C13.6485 2.96296 13.1935 1.93376 12.4139 1.17824C11.6343 0.422722 10.5914 0.000166433 9.50575 0Z" fill="#497248"/>
<path d="M9.50569 12.539C11.1586 12.539 12.498 11.2091 12.498 9.56712C12.498 7.92511 11.1586 6.59521 9.50569 6.59521C7.85282 6.59521 6.51343 7.92511 6.51343 9.56712C6.51343 11.2091 7.85282 12.539 9.50569 12.539Z" fill="white"/>
</svg>
