<svg width="35" height="30" viewBox="0 0 35 30" fill="none" xmlns="http://www.w3.org/2000/svg">
<g style="mix-blend-mode:exclusion">
<path d="M16.7989 5.17357C17.1894 5.5641 17.8226 5.5641 18.2131 5.17357C21.2101 2.17656 23.9413 1.05804 26.1797 1.01394C28.4083 0.970042 30.316 1.98666 31.7041 3.60557C34.5427 6.9163 35.0029 12.4441 31.6375 15.8114C31.637 15.8119 31.6364 15.8125 31.6358 15.8131L20.2043 27.1389C20.2043 27.1389 20.2043 27.1389 20.2042 27.1389C18.6767 28.6521 16.3353 28.6521 14.8078 27.1389C14.8078 27.1389 14.8078 27.1389 14.8078 27.1389L3.37624 15.8131C3.37571 15.8125 3.37517 15.812 3.37464 15.8115C-0.00316482 12.4317 0.454366 6.89803 3.29154 3.58899C4.67909 1.97068 6.58761 0.95522 8.8189 1.00153C11.0604 1.04804 13.7961 2.17075 16.7989 5.17357Z" stroke="#467048" stroke-width="2" stroke-linecap="round" stroke-linejoin="round"/>
</g>
</svg>
