<svg width="17" height="20" viewBox="0 0 17 20" fill="none" xmlns="http://www.w3.org/2000/svg">
<path fill-rule="evenodd" clip-rule="evenodd" d="M8.50002 0C13.1364 0 17 3.79066 17 8.33956C17 9.82418 16.4799 11.2883 15.753 12.6149C15.0232 13.9466 14.0572 15.1901 13.0975 16.2486C12.136 17.3093 11.1645 18.2023 10.4075 18.8332C10.0294 19.1484 9.69847 19.4034 9.44331 19.5841C9.31732 19.6733 9.19926 19.7517 9.09736 19.8117C9.04777 19.8409 8.98734 19.8745 8.92306 19.9037C8.89107 19.9181 8.84505 19.9375 8.79014 19.9547C8.74695 19.9682 8.63899 20 8.50002 20C8.3598 20 8.251 19.9677 8.20767 19.954C8.15247 19.9365 8.10628 19.9169 8.07423 19.9023C8.00984 19.8728 7.94935 19.839 7.89978 19.8095C7.7979 19.7489 7.67991 19.6698 7.55398 19.5799C7.299 19.3981 6.96821 19.1412 6.59031 18.8241C5.83373 18.1893 4.86263 17.2917 3.90156 16.2282C2.9424 15.1668 1.97689 13.9222 1.24739 12.5936C0.521009 11.2707 0 9.81254 0 8.33956C0 3.79066 3.86359 0 8.50002 0ZM8.50002 10.8302C7.09799 10.8302 5.96144 9.71511 5.96144 8.33956C5.96144 6.96401 7.09799 5.8489 8.50002 5.8489C9.90203 5.8489 11.0386 6.96401 11.0386 8.33956C11.0386 9.71511 9.90203 10.8302 8.50002 10.8302Z" fill="#497248"/>
</svg>
