<svg width="20" height="13" viewBox="0 0 20 13" fill="none" xmlns="http://www.w3.org/2000/svg">
<path fill-rule="evenodd" clip-rule="evenodd" d="M0 1.97388C0 0.851203 0.947651 0 2.04207 0H17.0172C18.1117 0 19.0593 0.851203 19.0593 1.97388V11.0261C19.0593 12.1489 18.1117 13 17.0172 13H2.04207C0.947651 13 0 12.1489 0 11.0261L0 1.97388ZM6.67076 6.49996C6.67076 4.92103 7.95073 3.64106 9.52965 3.64106C11.1086 3.64106 12.3886 4.92103 12.3886 6.49996C12.3886 8.07889 11.1086 9.35886 9.52965 9.35886C7.95073 9.35886 6.67076 8.07889 6.67076 6.49996ZM4.08915 6.49997C4.08915 7.06526 3.63089 7.52351 3.06561 7.52351C2.50032 7.52351 2.04207 7.06526 2.04207 6.49997C2.04207 5.93469 2.50032 5.47643 3.06561 5.47643C3.63089 5.47643 4.08915 5.93469 4.08915 6.49997ZM15.9938 7.52351C16.559 7.52351 17.0172 7.06526 17.0172 6.49997C17.0172 5.93469 16.559 5.47643 15.9938 5.47643C15.4285 5.47643 14.9703 5.93469 14.9703 6.49997C14.9703 7.06526 15.4285 7.52351 15.9938 7.52351Z" fill="#497248"/>
</svg>
